<?xml version="1.0" encoding="utf-8"?>
<svg id="master-artboard" viewBox="0 0 1070.077880859375 381.6665344238281" version="1.1" xmlns="http://www.w3.org/2000/svg" x="0px" y="0px" style="enable-background:new 0 0 336 235.2;" width="1070.077880859375px" height="381.6665344238281px"><rect id="ee-background" x="0" y="0" width="1070.077880859375" height="381.6665344238281" style="fill: white; fill-opacity: 0; pointer-events: none;"/><path d="M 522.1441040039062 364.7149658203125 L 520.1541137695312 364.7149658203125 L 520.1541137695312 349.35498046875 L 511.3541259765625 349.35498046875 L 511.3541259765625 364.7149658203125 L 509.3641052246094 364.7149658203125 L 509.3641052246094 347.5849609375 L 522.1441040039062 347.5849609375 L 522.1441040039062 364.7149658203125 ZM 528.3900146484375 351.8749694824219 L 528.3900146484375 360.01495361328125 L 528.3099975585938 362.14495849609375 L 528.27001953125 362.8149719238281 L 535.219970703125 351.8749694824219 L 537.6500244140625 351.8749694824219 L 537.6500244140625 364.7149658203125 L 535.8300170898438 364.7149658203125 L 535.8300170898438 356.8649597167969 L 535.8699951171875 355.3149719238281 L 535.9299926757812 353.7949523925781 L 528.989990234375 364.7149658203125 L 526.5599975585938 364.7149658203125 L 526.5599975585938 351.8749694824219 L 528.3900146484375 351.8749694824219 ZM 549.2606811523438 351.8749694824219 L 551.3906860351562 351.8749694824219 L 545.8507080078125 358.074951171875 L 551.8507080078125 364.7149658203125 L 549.5806884765625 364.7149658203125 L 543.720703125 358.2149658203125 L 543.720703125 364.7149658203125 L 541.7706909179688 364.7149658203125 L 541.7706909179688 351.8749694824219 L 543.720703125 351.8749694824219 L 543.720703125 358.1149597167969 L 549.2606811523438 351.8749694824219 ZM 565.317626953125 358.28497314453125 C 565.317626953125 360.3782958984375 564.7909545898438 362.0116271972656 563.7376098632812 363.1849670410156 C 562.6776123046875 364.3583068847656 561.220947265625 364.9449768066406 559.3676147460938 364.9449768066406 C 558.2142944335938 364.9449768066406 557.1942749023438 364.6783142089844 556.3076171875 364.14495849609375 C 555.4142456054688 363.60498046875 554.7242431640625 362.8316345214844 554.2376098632812 361.824951171875 C 553.7576293945312 360.8116455078125 553.517578125 359.6316223144531 553.517578125 358.28497314453125 C 553.517578125 356.1916198730469 554.0409545898438 354.55828857421875 555.0875854492188 353.3849792480469 C 556.13427734375 352.2182922363281 557.5875854492188 351.6349792480469 559.4476318359375 351.6349792480469 C 561.240966796875 351.6349792480469 562.6676025390625 352.23162841796875 563.7276000976562 353.4249572753906 C 564.78759765625 354.6249694824219 565.317626953125 356.2449645996094 565.317626953125 358.28497314453125 M 555.527587890625 358.28497314453125 C 555.527587890625 359.9249572753906 555.8576049804688 361.1749572753906 556.517578125 362.03497314453125 C 557.1709594726562 362.89495849609375 558.13427734375 363.324951171875 559.4075927734375 363.324951171875 C 560.680908203125 363.324951171875 561.6475830078125 362.89495849609375 562.3076171875 362.03497314453125 C 562.9675903320312 361.181640625 563.297607421875 359.931640625 563.297607421875 358.28497314453125 C 563.297607421875 356.6516418457031 562.9675903320312 355.41162109375 562.3076171875 354.5649719238281 C 561.6475830078125 353.7116394042969 560.6742553710938 353.28497314453125 559.3875732421875 353.28497314453125 C 558.1142578125 353.28497314453125 557.154296875 353.7049560546875 556.5076293945312 354.5449523925781 C 555.854248046875 355.3782958984375 555.527587890625 356.6249694824219 555.527587890625 358.28497314453125 ZM 570.9835205078125 356.03497314453125 L 569.5435180664062 356.03497314453125 L 569.5435180664062 348.824951171875 L 567.093505859375 348.824951171875 L 567.093505859375 347.5849609375 L 573.4635009765625 347.5849609375 L 573.4635009765625 348.824951171875 L 570.9835205078125 348.824951171875 L 570.9835205078125 356.03497314453125 M 578.0234985351562 356.03497314453125 L 575.6635131835938 349.4849548339844 L 575.573486328125 349.4849548339844 L 575.6434936523438 350.9949645996094 L 575.6434936523438 356.03497314453125 L 574.2435302734375 356.03497314453125 L 574.2435302734375 347.5849609375 L 576.4335327148438 347.5849609375 L 578.7335205078125 354.1349792480469 L 581.113525390625 347.5849609375 L 583.2235107421875 347.5849609375 L 583.2235107421875 356.03497314453125 L 581.7335205078125 356.03497314453125 L 581.7335205078125 351.10498046875 L 581.8035278320312 349.5049743652344 L 581.7135009765625 349.5049743652344 L 579.2335205078125 356.03497314453125 L 578.0234985351562 356.03497314453125 Z" transform="matrix(9.89430046081543, 0, 0, 9.89430046081543, -4717.708984375, -3276.398193359375)" style="fill: rgb(51, 51, 51); white-space: pre; color: rgb(51, 51, 51);"/><g transform="matrix(1.9998424053192139, 0, 0, 1.9998424053192139, -1725.3268089294434, -266.2922134399414)"><g transform="matrix(1, 0, 0, 1, 0, 0)">
		<path class="st0" d="M1027.8,185c-0.1-25.9-36.4-46.7-81.2-46.5c-44.7,0.2-80.9,21.3-80.8,47.1c0,10.2,5.7,19.5,15.2,27.2&#10;&#9;&#9;&#9;l0.3,87.9c0,9.3,7.6,16.8,16.9,16.7l98.1-0.4c9.3,0,16.8-7.6,16.7-16.9l-0.3-87.9C1022.2,204.5,1027.8,195.1,1027.8,185z&#10;&#9;&#9;&#9; M1005.8,203.7l-4.1,3.3l0.4,93.2c0,3.2-2.6,5.8-5.8,5.8l-98.1,0.4c-3.2,0-5.8-2.6-5.8-5.8l-0.4-93.2l-4.1-3.3&#10;&#9;&#9;&#9;c-5-4-11.1-10.6-11.1-18.6c-0.1-16.9,28.6-35.9,69.9-36.1c41.3-0.2,70.1,18.6,70.1,35.6C1016.8,193.1,1010.8,199.7,1005.8,203.7z" style="fill: rgb(51, 51, 51); opacity: 1;"/>
		<path d="M 918.199987 289 A 8.9 8.9 0 0 1 909.299988 297.9 A 8.9 8.9 0 0 1 900.399988 289 A 8.9 8.9 0 0 1 909.299988 280.1 A 8.9 8.9 0 0 1 918.199987 289 Z" class="st0" style="fill: rgb(51, 51, 51); opacity: 1;"/>
		<path d="M 912.199975 269.100006 A 5.6 5.6 0 0 1 906.599976 274.700006 A 5.6 5.6 0 0 1 900.999976 269.100006 A 5.6 5.6 0 0 1 906.599976 263.500006 A 5.6 5.6 0 0 1 912.199975 269.100006 Z" class="st0" style="fill: rgb(51, 51, 51); opacity: 1;"/>
		<path d="M 930.200012 294.399994 A 3.5 3.5 0 0 1 926.700012 297.899994 A 3.5 3.5 0 0 1 923.200012 294.399994 A 3.5 3.5 0 0 1 926.700012 290.899994 A 3.5 3.5 0 0 1 930.200012 294.399994 Z" class="st0" style="fill: rgb(51, 51, 51); opacity: 1;"/>
	</g></g></svg>