<svg id="visual" viewBox="0 0 960 540" width="960" height="540" xmlns="http://www.w3.org/2000/svg" xmlns:xlink="http://www.w3.org/1999/xlink" version="1.1"><rect x="0" y="0" width="960" height="540" fill="#1f2937"></rect><path d="M0 200L64 293L128 304L192 298L256 308L320 272L384 303L448 256L512 242L576 187L640 234L704 211L768 261L832 245L896 248L960 295L960 541L896 541L832 541L768 541L704 541L640 541L576 541L512 541L448 541L384 541L320 541L256 541L192 541L128 541L64 541L0 541Z" fill="#667eea"></path><path d="M0 304L64 270L128 287L192 348L256 271L320 245L384 311L448 287L512 350L576 276L640 307L704 336L768 301L832 263L896 256L960 343L960 541L896 541L832 541L768 541L704 541L640 541L576 541L512 541L448 541L384 541L320 541L256 541L192 541L128 541L64 541L0 541Z" fill="#9d62cd"></path><path d="M0 354L64 297L128 328L192 383L256 347L320 363L384 386L448 392L512 328L576 342L640 322L704 302L768 301L832 351L896 322L960 392L960 541L896 541L832 541L768 541L704 541L640 541L576 541L512 541L448 541L384 541L320 541L256 541L192 541L128 541L64 541L0 541Z" fill="#bd40a3"></path><path d="M0 349L64 369L128 370L192 427L256 388L320 424L384 395L448 398L512 352L576 422L640 391L704 374L768 361L832 387L896 363L960 416L960 541L896 541L832 541L768 541L704 541L640 541L576 541L512 541L448 541L384 541L320 541L256 541L192 541L128 541L64 541L0 541Z" fill="#ca1a72"></path><path d="M0 462L64 469L128 441L192 429L256 419L320 416L384 397L448 451L512 453L576 469L640 460L704 409L768 412L832 417L896 392L960 419L960 541L896 541L832 541L768 541L704 541L640 541L576 541L512 541L448 541L384 541L320 541L256 541L192 541L128 541L64 541L0 541Z" fill="#c4013e"></path><path d="M0 477L64 475L128 490L192 486L256 490L320 466L384 485L448 500L512 469L576 450L640 476L704 465L768 481L832 491L896 489L960 500L960 541L896 541L832 541L768 541L704 541L640 541L576 541L512 541L448 541L384 541L320 541L256 541L192 541L128 541L64 541L0 541Z" fill="#ae1f05"></path></svg>